<svg width="155" height="40" viewBox="0 0 155 40" fill="none" xmlns="http://www.w3.org/2000/svg">
<path d="M46.0879 12.5875H49.8379V27.75H46.0879V12.5875ZM51.3254 22.025C51.3254 18.275 53.6254 16.0375 57.1754 16.0375C60.7254 16.0375 63.0254 18.275 63.0254 22.025C63.0254 25.775 60.7754 28.025 57.1754 28.025C53.5754 28.025 51.3254 25.8375 51.3254 22.025ZM59.2629 22.025C59.2629 19.9625 58.4504 18.75 57.1754 18.75C55.9004 18.75 55.1004 20 55.1004 22.025C55.1004 24.05 55.8879 25.275 57.1754 25.275C58.4629 25.275 59.2629 24.125 59.2629 22.0375V22.025ZM64.4379 28.4875H68.0379C68.2093 28.8681 68.4989 29.1832 68.8638 29.386C69.2286 29.5886 69.6493 29.6681 70.0629 29.6125C71.4879 29.6125 72.2379 28.8375 72.2379 27.7125V25.6125H72.1629C71.8641 26.2561 71.3793 26.7954 70.771 27.1609C70.1628 27.5262 69.4589 27.701 68.7504 27.6625C66.0129 27.6625 64.2004 25.575 64.2004 21.9875C64.2004 18.4 65.9254 16.1375 68.8004 16.1375C69.5311 16.1089 70.2531 16.3042 70.8698 16.6974C71.4864 17.0906 71.9681 17.6629 72.2504 18.3375V16.25H76.0004V27.625C76.0004 30.3625 73.5879 32.0625 70.0254 32.0625C66.7129 32.0625 64.6504 30.575 64.4379 28.5V28.4875ZM72.2504 22.0125C72.2504 20.1875 71.4129 19.0375 70.0879 19.0375C68.7629 19.0375 67.9504 20.175 67.9504 22.0125C67.9504 23.85 68.7504 24.8875 70.0879 24.8875C71.4254 24.8875 72.2504 23.875 72.2504 22.025V22.0125ZM77.4129 22.0125C77.4129 18.2625 79.7129 16.025 83.2629 16.025C86.8129 16.025 89.1254 18.2625 89.1254 22.0125C89.1254 25.7625 86.8754 28.0125 83.2629 28.0125C79.6504 28.0125 77.4129 25.8375 77.4129 22.025V22.0125ZM85.3504 22.0125C85.3504 19.95 84.5379 18.7375 83.2629 18.7375C81.9879 18.7375 81.2504 20 81.2504 22.0375C81.2504 24.075 82.0379 25.2875 83.3129 25.2875C84.5879 25.2875 85.3504 24.125 85.3504 22.0375V22.0125ZM90.5504 13.525C90.5405 13.1464 90.6434 12.7734 90.8458 12.4532C91.0483 12.1331 91.3411 11.8803 91.6874 11.7269C92.0336 11.5734 92.4176 11.5262 92.7908 11.5913C93.1639 11.6564 93.5093 11.8308 93.7831 12.0923C94.0571 12.3539 94.2471 12.691 94.3293 13.0607C94.4114 13.4305 94.3819 13.8162 94.2444 14.1692C94.107 14.5221 93.8679 14.8264 93.5574 15.0432C93.247 15.2601 92.879 15.38 92.5004 15.3875C92.2494 15.4047 91.9975 15.3699 91.7606 15.2851C91.5236 15.2004 91.3069 15.0676 91.1238 14.895C90.9406 14.7225 90.7951 14.5139 90.6965 14.2824C90.5978 14.051 90.548 13.8016 90.5504 13.55V13.525ZM90.5504 16.275H94.3004V27.75H90.5504V16.275ZM107.913 22.0125C107.913 25.7625 106.25 27.9 103.4 27.9C102.67 27.9469 101.942 27.7682 101.316 27.3882C100.69 27.0081 100.196 26.445 99.9004 25.775H99.8254V31.425H96.0754V16.25H99.8254V18.3H99.9004C100.182 17.6189 100.667 17.0411 101.289 16.6452C101.91 16.2494 102.639 16.0546 103.375 16.0875C106.25 16.1375 107.963 18.2875 107.963 22.0375L107.913 22.0125ZM104.163 22.0125C104.163 20.1875 103.325 19.025 102.013 19.025C100.7 19.025 99.8629 20.2 99.8504 22.0125C99.8379 23.825 100.7 24.9875 102.013 24.9875C103.325 24.9875 104.163 23.85 104.163 22.0375V22.0125ZM114.35 16.0125C117.463 16.0125 119.35 17.4875 119.438 19.85H116.025C116.025 19.0375 115.35 18.525 114.313 18.525C113.275 18.525 112.813 18.925 112.813 19.5125C112.813 20.1 113.225 20.2875 114.063 20.4625L116.463 20.95C118.75 21.4375 119.725 22.3625 119.725 24.1C119.725 26.475 117.563 28 114.375 28C111.188 28 109.1 26.475 108.938 24.1375H112.55C112.663 24.9875 113.338 25.4875 114.438 25.4875C115.538 25.4875 116.038 25.125 116.038 24.525C116.038 23.925 115.688 23.8 114.788 23.6125L112.625 23.15C110.388 22.6875 109.213 21.5 109.213 19.75C109.238 17.5 111.25 16.0375 114.35 16.0375V16.0125ZM132.238 27.725H128.625V25.5875H128.55C128.352 26.3051 127.914 26.9332 127.309 27.3676C126.704 27.8019 125.969 28.0162 125.225 27.975C124.656 28.0074 124.086 27.9171 123.554 27.7102C123.022 27.5034 122.541 27.1849 122.143 26.776C121.744 26.3672 121.438 25.8776 121.246 25.3405C121.053 24.8034 120.978 24.2311 121.025 23.6625V16.25H124.775V22.8C124.775 24.1625 125.475 24.8875 126.638 24.8875C126.91 24.888 127.18 24.8304 127.429 24.7182C127.677 24.6061 127.899 24.4421 128.079 24.2374C128.258 24.0325 128.393 23.7916 128.472 23.5309C128.55 23.27 128.574 22.9952 128.538 22.725V16.25H132.288L132.238 27.725ZM134.05 16.25H137.675V18.4625H137.75C137.949 17.7544 138.378 17.1321 138.968 16.6934C139.558 16.2546 140.278 16.0239 141.013 16.0375C141.762 15.9776 142.504 16.2015 143.095 16.6647C143.685 17.128 144.08 17.7965 144.2 18.5375H144.275C144.502 17.7886 144.972 17.1366 145.61 16.684C146.248 16.2314 147.019 16.0039 147.8 16.0375C148.31 16.0204 148.818 16.1107 149.29 16.3027C149.764 16.4946 150.19 16.784 150.544 17.1517C150.898 17.5196 151.17 17.9577 151.344 18.4376C151.517 18.9175 151.588 19.4286 151.55 19.9375V27.75H147.8V20.9375C147.8 19.6875 147.238 19.1125 146.188 19.1125C145.954 19.1105 145.722 19.1587 145.508 19.254C145.294 19.3492 145.103 19.4892 144.948 19.6646C144.793 19.84 144.677 20.0465 144.608 20.2704C144.539 20.4944 144.52 20.7304 144.55 20.9625V27.75H140.988V20.8875C140.988 19.7375 140.425 19.1125 139.4 19.1125C139.164 19.1126 138.929 19.1629 138.714 19.26C138.498 19.3572 138.304 19.4991 138.148 19.6762C137.99 19.8534 137.873 20.0619 137.802 20.288C137.732 20.514 137.709 20.7524 137.738 20.9875V27.75H133.988L134.05 16.25Z" fill="#101010" fill-opacity="0.5"/>
<path d="M35.6 13.275C34.9639 11.8204 34.122 10.4649 33.1 9.24999C31.5894 7.40041 29.7041 5.89172 27.5684 4.82324C25.4326 3.75476 23.0947 3.1507 20.7087 3.05081C18.3227 2.95093 15.9426 3.35747 13.725 4.24372C11.5075 5.12996 9.50271 6.4758 7.84275 8.19265C6.18277 9.90949 4.90521 11.9584 4.09415 14.2046C3.28308 16.4507 2.9569 18.8432 3.13707 21.2245C3.31726 23.6059 3.9997 25.922 5.1395 28.0205C6.2793 30.1191 7.85061 31.9525 9.75001 33.4C10.9688 34.3474 12.3154 35.1175 13.75 35.6875C15.7612 36.5117 17.9139 36.9362 20.0875 36.9375C24.5742 36.9276 28.874 35.1391 32.0444 31.9641C35.2146 28.7891 36.9967 24.4867 37 20C37.0032 17.6856 36.5266 15.3957 35.6 13.275ZM20.075 6.48747C22.027 6.48727 23.9554 6.9139 25.725 7.73747C25.2935 7.92394 24.8397 8.05417 24.375 8.12499C22.8457 8.34635 21.4291 9.05632 20.3365 10.1489C19.2439 11.2416 18.5339 12.6582 18.3125 14.1875C18.2154 15.0451 17.8252 15.843 17.2081 16.4465C16.591 17.05 15.7846 17.422 14.925 17.5C13.3957 17.7214 11.9791 18.4314 10.8865 19.524C9.79386 20.6166 9.08387 22.0332 8.86251 23.5625C8.78756 24.378 8.43962 25.1444 7.87501 25.7375C6.90082 23.6791 6.4632 21.4076 6.60285 19.1346C6.7425 16.8616 7.45488 14.6609 8.67372 12.7371C9.89255 10.8135 11.5782 9.22937 13.5739 8.13229C15.5695 7.0352 17.8102 6.46079 20.0875 6.46247L20.075 6.48747ZM9.73751 28.75C9.88751 28.6125 10.0375 28.4875 10.1875 28.3375C11.2996 27.2594 12.0134 25.8361 12.2125 24.3C12.2932 23.4365 12.6787 22.63 13.3 22.025C13.8979 21.4027 14.7025 21.0204 15.5625 20.95C17.0917 20.7286 18.5084 20.0186 19.601 18.926C20.6936 17.8334 21.4036 16.4167 21.625 14.8875C21.6791 13.9844 22.0666 13.1335 22.7125 12.5C23.3251 11.8898 24.1374 11.5214 25 11.4625C26.4049 11.2692 27.7151 10.6446 28.75 9.67499C29.9284 10.6526 30.9266 11.8286 31.7 13.15C31.6525 13.2141 31.598 13.2729 31.5375 13.325C30.9409 13.9527 30.1372 14.3435 29.275 14.425C27.7441 14.6425 26.3254 15.3512 25.232 16.4445C24.1387 17.5379 23.43 18.9566 23.2125 20.4875C23.1244 21.348 22.7415 22.1516 22.1287 22.7621C21.5159 23.3727 20.7109 23.7526 19.85 23.8375C18.3162 24.0571 16.8944 24.7657 15.7954 25.8579C14.6965 26.9501 13.9791 28.3676 13.75 29.9C13.6827 30.5109 13.4729 31.0975 13.1375 31.6125C11.855 30.851 10.7064 29.884 9.73751 28.75ZM20.075 33.575C18.8066 33.5764 17.5442 33.3996 16.325 33.05C16.7421 32.2725 17.0132 31.4251 17.125 30.55C17.2126 29.6914 17.5937 28.8892 18.204 28.279C18.8142 27.6687 19.6164 27.2876 20.475 27.2C22.0065 26.9811 23.426 26.2722 24.5211 25.1794C25.6161 24.0866 26.328 22.6685 26.55 21.1375C26.6376 20.2789 27.0187 19.4767 27.629 18.8665C28.2392 18.2562 29.0414 17.8751 29.9 17.7875C31.0525 17.6376 32.151 17.2085 33.1 16.5375C33.627 18.5349 33.6894 20.6264 33.2825 22.6516C32.8756 24.6769 32.0101 26.5821 30.7526 28.221C29.4951 29.8597 27.879 31.1889 26.028 32.1061C24.1771 33.0234 22.1407 33.5045 20.075 33.5125V33.575Z" fill="#101010" fill-opacity="0.5"/>
</svg>
