<svg width="182" height="46" viewBox="0 0 182 46" fill="none" xmlns="http://www.w3.org/2000/svg">
<path d="M20.9842 8.99704V3.24704H2.78418V42.7529H20.9842V37.0029C17.2559 37.0029 13.6803 35.5276 11.044 32.9015C8.40776 30.2754 6.92672 26.7138 6.92672 23C6.92672 19.2862 8.40776 15.7244 11.044 13.0984C13.6803 10.4724 17.2559 8.99704 20.9842 8.99704Z" fill="#101010" fill-opacity="0.5"/>
<path d="M20.9844 8.99704V37.0029C24.7127 37.0029 28.2883 35.5276 30.9246 32.9015C33.5608 30.2754 35.0418 26.7138 35.0418 23C35.0418 19.2862 33.5608 15.7244 30.9246 13.0984C28.2883 10.4724 24.7127 8.99704 20.9844 8.99704Z" fill="#101010" fill-opacity="0.5"/>
<path d="M45.2559 12.5147H49.3305V32.0647H45.2559V12.5147Z" fill="#101010" fill-opacity="0.5"/>
<path d="M51.612 25.3677C51.612 23.9611 52.0312 22.5863 52.8166 21.4173C53.6019 20.2484 54.7179 19.338 56.0233 18.8016C57.3287 18.2653 58.7644 18.127 60.1487 18.4043C61.533 18.6817 62.8035 19.3622 63.799 20.3596C64.7946 21.3571 65.4706 22.6265 65.7411 24.007C66.0116 25.3875 65.8646 26.8169 65.3186 28.1141C64.7726 29.4112 63.8524 30.5178 62.6744 31.2933C61.4965 32.0689 60.1138 32.4786 58.7018 32.4706C57.7653 32.4779 56.8367 32.2989 55.9706 31.9439C55.1045 31.589 54.3181 31.0654 53.6577 30.404C52.9973 29.7424 52.4763 28.9561 52.125 28.0913C51.7737 27.2265 51.5993 26.3005 51.612 25.3677ZM61.8257 25.3677C61.8097 24.7613 61.6145 24.173 61.2646 23.6766C60.9147 23.1801 60.4258 22.7973 59.8586 22.5763C59.2916 22.3552 58.6717 22.3055 58.0765 22.4337C57.4812 22.5617 56.9371 22.8616 56.5121 23.2962C56.0871 23.7306 55.8001 24.2802 55.6871 24.8763C55.5741 25.4724 55.64 26.0884 55.8766 26.6473C56.1132 27.2062 56.5099 27.6833 57.0174 28.0187C57.5247 28.3543 58.12 28.5333 58.729 28.5335C59.1436 28.5417 59.5555 28.4644 59.9387 28.3066C60.322 28.149 60.6685 27.9143 60.9566 27.6172C61.2447 27.3201 61.4681 26.9668 61.613 26.5799C61.7579 26.1928 61.8211 25.7802 61.7985 25.3677H61.8257Z" fill="#101010" fill-opacity="0.5"/>
<path d="M81.914 18.6706V31.4018C81.914 35.8935 78.3826 37.8012 74.8105 37.8012C73.5505 37.9041 72.2867 37.6548 71.1614 37.0811C70.036 36.5075 69.0937 35.6323 68.4405 34.5541L71.8768 32.5788C72.1552 33.1381 72.5981 33.5995 73.1466 33.9016C73.695 34.2037 74.3228 34.3322 74.9463 34.27C75.3436 34.3187 75.7467 34.2795 76.1269 34.155C76.5072 34.0304 76.855 33.8238 77.1457 33.5497C77.4365 33.2756 77.6628 32.941 77.8085 32.5696C77.9542 32.1984 78.0158 31.7995 77.9887 31.4018V30.1706C77.5146 30.7433 76.9129 31.1979 76.2316 31.4985C75.5502 31.7991 74.8079 31.9374 74.0635 31.9024C72.2624 31.9024 70.5352 31.1896 69.2616 29.921C67.988 28.6525 67.2725 26.9318 67.2725 25.1376C67.2725 23.3435 67.988 21.623 69.2616 20.3543C70.5352 19.0857 72.2624 18.3729 74.0635 18.3729C74.8079 18.3379 75.5502 18.4762 76.2316 18.7768C76.9129 19.0774 77.5146 19.532 77.9887 20.1047V18.7518L81.914 18.6706ZM77.9887 25.0971C78.0158 24.4498 77.8479 23.8092 77.5066 23.2577C77.1652 22.7063 76.6662 22.2691 76.0734 22.0025C75.4807 21.7358 74.8215 21.6519 74.1804 21.7615C73.5395 21.8711 72.946 22.1692 72.4764 22.6174C72.0069 23.0656 71.6827 23.6436 71.5455 24.2769C71.4083 24.9102 71.4644 25.5698 71.7066 26.171C71.9489 26.7723 72.3662 27.2876 72.9047 27.6507C73.4433 28.0139 74.0787 28.2083 74.729 28.2088C75.1535 28.2393 75.5795 28.1807 75.9797 28.037C76.3799 27.8932 76.7456 27.6674 77.0527 27.3741C77.3599 27.0809 77.6019 26.7267 77.7631 26.3345C77.9243 25.9422 78.0012 25.5207 77.9887 25.0971Z" fill="#101010" fill-opacity="0.5"/>
<path d="M84.2085 25.3676C84.2085 23.9622 84.6271 22.5884 85.4112 21.42C86.1953 20.2516 87.3097 19.3412 88.6134 18.8041C89.9172 18.2669 91.3516 18.127 92.7352 18.4022C94.1188 18.6774 95.3893 19.3552 96.386 20.3499C97.3827 21.3447 98.0607 22.6116 98.3343 23.9902C98.6079 25.369 98.4648 26.7976 97.923 28.0952C97.3812 29.3929 96.4651 30.5012 95.2908 31.2801C94.1163 32.059 92.7364 32.4733 91.3255 32.4706C90.3872 32.4797 89.4565 32.302 88.588 31.9481C87.7196 31.5942 86.9307 31.0711 86.2679 30.4095C85.605 29.7479 85.0814 28.9612 84.7277 28.0954C84.3742 27.2297 84.1976 26.3023 84.2085 25.3676ZM94.4222 25.3676C94.4062 24.7607 94.2106 24.1719 93.8602 23.6751C93.5098 23.1785 93.0199 22.7957 92.452 22.575C91.8841 22.3544 91.2636 22.3055 90.668 22.4347C90.0724 22.5638 89.5283 22.8652 89.1039 23.301C88.6794 23.7368 88.3935 24.2877 88.2822 24.8846C88.1706 25.4816 88.2384 26.098 88.4771 26.6566C88.7157 27.2154 89.1146 27.6915 89.6238 28.0254C90.1329 28.3591 90.7295 28.536 91.3391 28.5335C91.7537 28.5416 92.1655 28.4644 92.5488 28.3066C92.9321 28.149 93.2786 27.9143 93.5667 27.6172C93.8548 27.3201 94.0782 26.9668 94.2231 26.5799C94.368 26.1928 94.4312 25.7802 94.4086 25.3676H94.4222Z" fill="#101010" fill-opacity="0.5"/>
<path d="M100.331 15.0853C100.331 14.6091 100.473 14.1434 100.739 13.7474C101.004 13.3513 101.382 13.0427 101.823 12.8604C102.265 12.6781 102.751 12.6304 103.22 12.7233C103.689 12.8163 104.12 13.0456 104.458 13.3824C104.796 13.7192 105.027 14.1484 105.12 14.6154C105.213 15.0826 105.165 15.5668 104.982 16.0069C104.799 16.4469 104.489 16.823 104.092 17.0877C103.694 17.3523 103.227 17.4935 102.749 17.4935C102.11 17.4865 101.499 17.2305 101.047 16.7804C100.595 16.3303 100.338 15.7219 100.331 15.0853ZM100.725 18.6706H104.8V32.0647H100.725V18.6706Z" fill="#101010" fill-opacity="0.5"/>
<path d="M122.239 25.3677C122.285 26.2584 122.153 27.1495 121.852 27.9894C121.551 28.8293 121.085 29.6015 120.483 30.2616C119.881 30.9219 119.154 31.4568 118.343 31.8359C117.533 32.215 116.655 32.4307 115.761 32.4706C115.001 32.5209 114.241 32.3998 113.535 32.1164C112.83 31.8328 112.198 31.3943 111.686 30.8335V37.4494H107.611V18.6706H111.686V19.9288C112.198 19.3697 112.831 18.9332 113.537 18.6521C114.242 18.3708 115.002 18.2523 115.761 18.3053C116.652 18.3452 117.526 18.5597 118.334 18.9362C119.141 19.3127 119.867 19.8441 120.468 20.4999C121.07 21.1557 121.536 21.9231 121.84 22.7584C122.144 23.5935 122.279 24.4801 122.239 25.3677ZM118.165 25.3677C118.149 24.7392 117.947 24.1296 117.584 23.6151C117.222 23.1005 116.715 22.7038 116.127 22.4751C115.54 22.2461 114.897 22.1953 114.28 22.3285C113.664 22.4618 113.1 22.7735 112.661 23.2245C112.221 23.6754 111.925 24.2455 111.809 24.8635C111.694 25.4814 111.764 26.1196 112.01 26.6981C112.257 27.2765 112.67 27.7695 113.197 28.1153C113.724 28.4612 114.342 28.6442 114.973 28.6418C115.405 28.66 115.836 28.5871 116.238 28.4277C116.64 28.2684 117.004 28.0262 117.305 27.717C117.607 27.4079 117.839 27.0387 117.987 26.6339C118.135 26.2289 118.196 25.7975 118.165 25.3677Z" fill="#101010" fill-opacity="0.5"/>
<path d="M134.64 28.0465C134.64 31.1312 131.923 32.4435 129.044 32.4435C127.869 32.5488 126.69 32.3008 125.659 31.7316C124.627 31.1624 123.791 30.2982 123.258 29.2506L126.762 27.2753C126.901 27.758 127.202 28.1787 127.615 28.4668C128.028 28.755 128.527 28.8931 129.03 28.8582C129.995 28.8582 130.483 28.5606 130.483 28.0194C130.483 26.5447 123.869 27.3294 123.869 22.6888C123.869 19.7665 126.341 18.3053 129.139 18.3053C130.202 18.2578 131.259 18.4982 132.196 19.0008C133.134 19.5035 133.917 20.2496 134.463 21.16L130.959 23C130.804 22.6509 130.551 22.3541 130.231 22.1452C129.91 21.9363 129.535 21.8244 129.152 21.8229C128.446 21.8229 128.025 22.0935 128.025 22.5671C128.025 24.1094 134.64 23.0947 134.64 28.0465Z" fill="#101010" fill-opacity="0.5"/>
<path d="M149.403 18.6706V32.0647H145.328V30.8065C144.865 31.3635 144.277 31.8041 143.613 32.0933C142.947 32.3824 142.223 32.5116 141.498 32.4706C138.782 32.4706 136.459 30.5359 136.459 26.9235V18.6706H140.534V26.3147C140.501 26.6343 140.539 26.957 140.645 27.2606C140.751 27.564 140.921 27.8411 141.143 28.0727C141.368 28.3042 141.639 28.4847 141.939 28.6017C142.24 28.7186 142.561 28.7692 142.883 28.75C144.35 28.75 145.382 27.8841 145.382 26.0441V18.6706H149.403Z" fill="#101010" fill-opacity="0.5"/>
<path d="M172.493 23.8388V32.0647H168.418V24.1906C168.418 22.8377 167.78 21.9988 166.49 21.9988C165.199 21.9988 164.384 22.9324 164.384 24.5153V32.0647H160.31V24.1906C160.31 22.8377 159.671 21.9988 158.381 21.9988C157.091 21.9988 156.276 22.9324 156.276 24.5153V32.0647H152.201V18.6706H156.276V19.9018C156.698 19.3579 157.248 18.9271 157.88 18.6484C158.51 18.3697 159.201 18.2517 159.889 18.3053C160.577 18.2695 161.264 18.4129 161.881 18.7212C162.498 19.0295 163.023 19.4924 163.406 20.0641C163.855 19.4667 164.447 18.9921 165.129 18.6845C165.809 18.3769 166.559 18.2465 167.304 18.3053C170.483 18.3053 172.493 20.4971 172.493 23.8388Z" fill="#101010" fill-opacity="0.5"/>
<path d="M175.915 18.5894C177.565 18.5894 178.903 17.2568 178.903 15.6129C178.903 13.9691 177.565 12.6365 175.915 12.6365C174.265 12.6365 172.927 13.9691 172.927 15.6129C172.927 17.2568 174.265 18.5894 175.915 18.5894Z" fill="#101010" fill-opacity="0.5"/>
</svg>
