<svg width="139" height="36" viewBox="0 0 139 36" fill="none" xmlns="http://www.w3.org/2000/svg">
<path d="M3.43555 32.9625H33.3965V3.03751H3.43555V32.9625ZM27.6297 15.1207H21.2988V8.79734H27.6297V15.1207ZM9.20113 8.79734H15.5356V20.8793H27.6297V27.2027H9.20113V8.79734ZM52.9067 3.03751C49.9438 3.03751 47.0475 3.91505 44.584 5.55915C42.1204 7.20325 40.2004 9.54007 39.0665 12.2741C37.9327 15.0082 37.6361 18.0166 38.2141 20.919C38.7921 23.8214 40.2188 26.4875 42.3139 28.58C44.4089 30.6727 47.0782 32.0977 49.9841 32.675C52.8901 33.2523 55.9021 32.9561 58.6395 31.8236C61.3768 30.6911 63.7164 28.7734 65.3625 26.3127C67.0086 23.8521 67.8872 20.9593 67.8872 18C67.8825 14.0331 66.3027 10.2301 63.4943 7.42505C60.6859 4.62003 56.8784 3.04214 52.9067 3.03751ZM52.9067 27.2027C51.0844 27.2027 49.303 26.663 47.7878 25.6517C46.2727 24.6406 45.0917 23.2033 44.3943 21.5217C43.697 19.8402 43.5145 17.9899 43.87 16.2046C44.2255 14.4195 45.1031 12.7798 46.3916 11.4927C47.6802 10.2057 49.3219 9.32926 51.1092 8.97417C52.8964 8.61908 54.749 8.80133 56.4326 9.49785C58.1162 10.1944 59.5552 11.3739 60.5676 12.8873C61.5801 14.4006 62.1204 16.1799 62.1204 18C62.1167 20.4396 61.1447 22.7782 59.4176 24.5032C57.6905 26.2283 55.3491 27.1989 52.9067 27.2027ZM121.494 3.03751C118.531 3.03728 115.635 3.91462 113.171 5.55858C110.708 7.20254 108.788 9.53928 107.653 12.2733C106.519 15.0073 106.223 18.0159 106.801 20.9183C107.378 23.8209 108.805 26.487 110.9 28.5797C112.995 30.6723 115.664 32.0975 118.571 32.6749C121.476 33.2523 124.488 32.9561 127.226 31.8237C129.963 30.6912 132.303 28.7735 133.948 26.3129C135.595 23.8522 136.474 20.9594 136.474 18C136.469 14.0333 134.89 10.2304 132.082 7.42546C129.274 4.62047 125.466 3.04245 121.494 3.03751ZM121.494 27.2027C119.672 27.2029 117.891 26.6633 116.375 25.6523C114.86 24.6413 113.679 23.204 112.981 21.5225C112.284 19.841 112.101 17.9906 112.456 16.2053C112.812 14.4202 113.689 12.7803 114.978 11.4932C116.266 10.206 117.908 9.32943 119.696 8.97425C121.483 8.61907 123.335 8.80125 125.019 9.49775C126.703 10.1942 128.142 11.3738 129.155 12.8872C130.166 14.4006 130.707 16.1799 130.707 18C130.704 20.4394 129.732 22.7777 128.004 24.5028C126.278 26.2278 123.937 27.1987 121.494 27.2027ZM87.2 3.03751C84.2371 3.03751 81.3408 3.91505 78.8773 5.55915C76.4137 7.20325 74.4937 9.54007 73.3598 12.2741C72.226 15.0082 71.9294 18.0166 72.5074 20.919C73.0854 23.8214 74.5121 26.4875 76.6072 28.58C78.7022 30.6727 81.3715 32.0977 84.2774 32.675C87.1833 33.2523 90.1954 32.9561 92.9328 31.8236C95.6701 30.6911 98.0097 28.7734 99.6558 26.3127C101.302 23.8521 102.18 20.9593 102.18 18C102.176 14.0331 100.596 10.2301 97.7876 7.42505C94.9792 4.62003 91.1717 3.04214 87.2 3.03751ZM87.2 27.2027C85.5021 27.2035 83.8371 26.7358 82.3886 25.8511C80.9402 24.9664 79.7646 23.6993 78.9917 22.1894C78.2189 20.6795 77.8786 18.9856 78.0087 17.2949C78.1388 15.604 78.7341 13.982 79.7289 12.6078C80.7238 11.2336 82.0794 10.1607 83.6462 9.5075C85.213 8.85427 86.9301 8.64616 88.6078 8.90612C90.2856 9.16609 91.8587 9.88401 93.1538 10.9807C94.4488 12.0773 95.4153 13.5101 95.9465 15.1207H87.2V20.8793H95.9465C95.3381 22.7172 94.1658 24.3172 92.5958 25.4521C91.0259 26.5871 89.1381 27.1995 87.2 27.2027Z" fill="#101010" fill-opacity="0.5"/>
</svg>
